HIERARCHY
ROOT SpineBase
{
  OFFSET 0.000000 0.000000 0.000000
  CHANNELS 6 Xposition Yposition Zposition Zrotation Xrotation Yrotation
  JOINT SpineMid
  {
    OFFSET -0.000000 34.829901 0.000000
    CHANNELS 3 Zrotation Xrotation Yrotation
    JOINT SpineShoulder
    {
      OFFSET -0.305188 25.910615 -0.760402
      CHANNELS 3 Zrotation Xrotation Yrotation
      JOINT Neck
      {
        OFFSET -0.162219 8.533856 -0.594273
        CHANNELS 3 Zrotation Xrotation Yrotation
        JOINT Head
        {
          OFFSET -2.848029 10.991526 8.991567
          CHANNELS 3 Zrotation Xrotation Yrotation
          End Site
          {
            OFFSET 0 0 0
          }
        }
      }
      JOINT ShoulderLeft
      {
        OFFSET -11.211975 -3.307803 24.552981
        CHANNELS 3 Zrotation Xrotation Yrotation
        JOINT ElbowLeft
        {
          OFFSET 19.061085 -19.862649 -6.578450
          CHANNELS 3 Zrotation Xrotation Yrotation
          JOINT WristLeft
          {
            OFFSET 11.177314 -25.309548 0.753099
            CHANNELS 3 Zrotation Xrotation Yrotation
            JOINT HandLeft
            {
              OFFSET 0.356125 -4.509450 4.966331
              CHANNELS 3 Zrotation Xrotation Yrotation
              JOINT HandTipLeft
              {
                OFFSET -0.254128 -1.018754 -0.715018
                CHANNELS 3 Zrotation Xrotation Yrotation
                End Site
                {
                  OFFSET 0 0 0
                }
              }
              JOINT ThumbLeft
              {
                OFFSET 2.096628 -1.307749 -0.114470
                CHANNELS 3 Zrotation Xrotation Yrotation
                End Site
                {
                  OFFSET 0 0 0
                }
              }
            }
          }
        }
      }
      JOINT ShoulderRight
      {
        OFFSET -0.405404 -4.903951 -12.881004
        CHANNELS 3 Zrotation Xrotation Yrotation
        JOINT ElbowRight
        {
          OFFSET -0.431550 -26.626645 -10.588944
          CHANNELS 3 Zrotation Xrotation Yrotation
          JOINT WristRight
          {
            OFFSET -3.632054 -25.710552 -8.227453
            CHANNELS 3 Zrotation Xrotation Yrotation
            JOINT HandRight
            {
              OFFSET 0.534234 -5.700634 -0.697682
              CHANNELS 3 Zrotation Xrotation Yrotation
              JOINT HandTipRight
              {
                OFFSET 0.693841 -3.953627 -2.798553
                CHANNELS 3 Zrotation Xrotation Yrotation
                End Site
                {
                  OFFSET 0 0 0
                }
              }
              JOINT ThumbRight
              {
                OFFSET -4.388096 0.452523 0.348061
                CHANNELS 3 Zrotation Xrotation Yrotation
                End Site
                {
                  OFFSET 0 0 0
                }
              }
            }
          }
        }
      }
    }
  }
  JOINT HipLeft
  {
    OFFSET -1.559685 -0.204687 0.433524
    CHANNELS 3 Zrotation Xrotation Yrotation
    JOINT KneeLeft
    {
      OFFSET 18.524250 -32.560379 3.141697
      CHANNELS 3 Zrotation Xrotation Yrotation
      JOINT AnkleLeft
      {
        OFFSET 5.002040 -38.574631 6.123162
        CHANNELS 3 Zrotation Xrotation Yrotation
        JOINT FootLeft
        {
          OFFSET -5.947025 -0.359337 -16.005487
          CHANNELS 3 Zrotation Xrotation Yrotation
          End Site
          {
            OFFSET 0 0 0
          }
        }
      }
    }
  }
  JOINT HipRight
  {
    OFFSET 0.689390 1.865629 -7.669661
    CHANNELS 3 Zrotation Xrotation Yrotation
    JOINT KneeRight
    {
      OFFSET 7.034346 -39.931193 -7.141094
      CHANNELS 3 Zrotation Xrotation Yrotation
      JOINT AnkleRight
      {
        OFFSET 2.824767 -34.323735 -1.794890
        CHANNELS 3 Zrotation Xrotation Yrotation
        JOINT FootRight
        {
          OFFSET -10.461436 -3.643523 -6.758858
          CHANNELS 3 Zrotation Xrotation Yrotation
          End Site
          {
            OFFSET 0 0 0
          }
        }
      }
    }
  }
}
MOTION
Frames: 11
Frame Time: 0.033333
38.392734 83.068641 303.976770 13.396907 -7.310667 84.876119 -0.506379 0.294690 -83.648420 -0.234944 -0.341485 0.495647 -6.035766 -5.590919 -9.890545 0.000000 0.000000 0.000000 -36.394489 3.270998 7.320862 -62.154199 16.811534 23.097573 58.588193 60.469067 -78.291293 65.909880 -19.196735 102.919720 0.000000 0.000000 0.000000 0.000000 0.000000 0.000000 -15.488702 -0.717690 1.685691 -41.696060 -30.960519 11.035845 -22.972697 9.434118 -2.448467 23.009631 -19.248464 8.440738 0.000000 0.000000 0.000000 0.000000 0.000000 0.000000 36.620522 48.343743 -87.708425 31.535707 -26.955135 -4.406796 -3.781058 30.463203 -26.367040 0.000000 0.000000 0.000000 4.388725 35.788237 -79.844362 31.195439 -1.986304 -3.872434 14.892172 -15.185088 -0.567485 0.000000 0.000000 0.000000
38.319225 82.622793 304.396032 13.656472 -7.632955 85.310511 -0.295462 0.303081 -84.045052 -0.197583 -0.155856 0.489138 -4.702579 -5.837724 -11.409000 0.000000 0.000000 0.000000 -50.184248 -0.761066 10.555821 -59.478927 23.396093 41.381431 71.090230 53.020617 -77.704860 69.817479 -33.779512 108.318693 0.000000 0.000000 0.000000 0.000000 0.000000 0.000000 -17.817657 -1.386824 2.634220 -45.607303 -31.497189 11.010017 -26.056499 10.264521 -0.789471 28.338380 -19.371158 8.080697 0.000000 0.000000 0.000000 0.000000 0.000000 0.000000 37.731403 48.249626 -88.417161 30.543360 -28.248258 -5.189464 -2.862802 28.946337 -26.325206 0.000000 0.000000 0.000000 5.586047 36.958041 -80.339945 33.104418 -2.413748 -3.867602 12.544689 -14.696394 -1.743591 0.000000 0.000000 0.000000
38.361285 82.352165 305.320759 14.434692 -7.682810 83.751743 0.032278 0.175488 -82.446370 -0.528226 0.026043 0.510344 -4.142882 -6.917011 -12.621887 0.000000 0.000000 0.000000 -60.414027 -4.180815 12.220171 -58.174666 29.806367 66.738969 75.387409 40.151272 -69.423515 61.781921 -50.542679 101.745916 0.000000 0.000000 0.000000 0.000000 0.000000 0.000000 -20.927238 -1.702476 3.711958 -49.434096 -29.939505 11.076217 -33.125093 9.285484 1.782020 35.277127 -21.009679 8.054864 0.000000 0.000000 0.000000 0.000000 0.000000 0.000000 34.441081 48.749648 -86.448528 28.047039 -30.665379 -6.519631 -2.732454 23.370021 -17.485065 0.000000 0.000000 0.000000 5.362993 39.727453 -78.256279 36.012947 -2.887475 -3.807920 7.641478 -13.188404 -3.677662 0.000000 0.000000 0.000000
36.715292 81.930203 306.572344 14.080873 -7.196067 79.855071 -0.098381 0.267889 -78.623936 -0.318550 0.056080 0.491373 -3.124606 -8.008837 -13.479522 0.000000 0.000000 0.000000 -69.585823 -7.465583 13.972027 -54.181776 36.088036 90.345180 79.270782 28.021663 -75.641508 60.801067 -53.295395 102.787553 0.000000 0.000000 0.000000 0.000000 0.000000 0.000000 -25.376188 -1.758167 5.783174 -50.592028 -25.001071 11.314969 -39.571999 6.120465 -0.497551 43.742917 -15.919085 12.910965 0.000000 0.000000 0.000000 0.000000 0.000000 0.000000 30.445082 51.391067 -81.444277 25.363010 -37.567714 -9.660079 -0.145390 21.383937 -9.156298 0.000000 0.000000 0.000000 3.364537 39.754134 -73.777207 37.265131 -3.268075 -3.442078 0.290569 -10.039365 -5.853103 0.000000 0.000000 0.000000
34.051533 81.548662 307.946456 13.272623 -7.055924 73.219211 -0.170778 0.660015 -72.073363 0.285801 0.108744 0.443933 -2.895889 -8.349818 -13.162907 0.000000 0.000000 0.000000 -75.846375 -8.949855 19.128470 -46.225369 44.989941 102.782702 79.140260 11.676746 -88.438798 57.936792 -46.507276 107.287304 0.000000 0.000000 0.000000 0.000000 0.000000 0.000000 -29.917679 -2.064745 8.048182 -51.485553 -19.304056 12.536470 -46.651281 3.708723 -4.774853 52.062662 -7.962416 22.301028 0.000000 0.000000 0.000000 0.000000 0.000000 0.000000 23.213660 55.638339 -71.669476 24.661256 -46.796908 -12.550381 2.645846 19.759878 0.334014 0.000000 0.000000 0.000000 -0.262901 37.847294 -66.277779 36.891303 -2.645175 -3.074217 -7.610657 -6.420363 -7.595368 0.000000 0.000000 0.000000
30.955454 81.079084 309.326210 12.135423 -5.815301 65.352863 -0.684044 0.831181 -64.395348 0.741692 0.095019 0.403321 -2.209041 -10.200548 -13.101627 0.000000 0.000000 0.000000 -78.349359 -8.381056 28.849266 -31.644903 54.225472 96.785671 78.199220 4.847769 -93.108524 58.628914 -49.772652 108.779830 0.000000 0.000000 0.000000 0.000000 0.000000 0.000000 -33.814483 -3.031451 9.842842 -51.091736 -10.507927 15.749682 -57.464985 0.564486 -18.088027 61.739423 5.139959 31.140722 0.000000 0.000000 0.000000 0.000000 0.000000 0.000000 10.672560 58.962721 -57.262885 23.554169 -56.964497 -16.446054 6.445422 20.120577 9.183732 0.000000 0.000000 0.000000 -4.660605 33.996606 -58.080446 35.387723 -1.373281 -2.743006 -11.293700 -5.606436 -9.217316 0.000000 0.000000 0.000000
27.611925 80.605799 310.885010 10.628619 -4.513297 56.855530 -0.907437 0.862133 -56.135546 1.052077 0.080679 0.365165 -0.814957 -13.328859 -13.601985 0.000000 0.000000 0.000000 -81.969111 -7.515276 46.837562 15.389355 60.172782 62.180467 73.030223 -3.553407 -99.509977 58.237826 -55.222459 106.841699 0.000000 0.000000 0.000000 0.000000 0.000000 0.000000 -36.948268 -4.556444 11.083672 -48.381510 -1.216827 18.974623 -72.375420 -0.154491 -42.594500 72.944062 38.989959 44.732064 0.000000 0.000000 0.000000 0.000000 0.000000 0.000000 -0.688225 63.012637 -39.225021 12.559475 -73.646132 -31.685319 8.189282 26.283035 14.663295 0.000000 0.000000 0.000000 -7.364943 28.900184 -50.163421 32.984109 -0.121574 -2.359417 -13.067016 -5.941175 -10.866621 0.000000 0.000000 0.000000
24.594939 79.905561 312.583918 8.938800 -3.096139 50.507468 -1.187022 0.730442 -50.005770 1.177630 0.019181 0.324226 2.941083 -15.662627 -15.416445 0.000000 0.000000 0.000000 -79.985191 -1.413984 69.205664 47.137548 45.096889 29.967115 68.892152 -12.001640 -114.294769 46.047271 -59.523981 103.945263 0.000000 0.000000 0.000000 0.000000 0.000000 0.000000 -38.682528 -6.660972 11.619205 -46.419400 9.658032 24.073489 -85.052208 4.300117 -95.577160 -71.224059 81.537550 -153.049112 0.000000 0.000000 0.000000 0.000000 0.000000 0.000000 -14.606531 61.754453 -24.544392 9.089565 -79.278227 -37.812345 9.511223 28.016937 19.298447 0.000000 0.000000 0.000000 -8.215402 23.870803 -44.872787 30.850814 1.787389 -2.159882 -12.559144 -7.852136 -13.477746 0.000000 0.000000 0.000000
21.488757 79.404903 315.187249 7.310611 -1.923618 48.602741 -1.455277 0.503147 -48.259217 0.967676 -0.209238 0.273633 6.539797 -16.610649 -16.621849 0.000000 0.000000 0.000000 -75.643115 7.506598 83.931975 53.957092 30.974747 19.634754 62.022317 -20.203397 -129.751473 41.949306 -64.395505 107.082734 0.000000 0.000000 0.000000 0.000000 0.000000 0.000000 -38.276811 -7.690798 11.755794 -43.300861 13.834127 24.559282 -91.334482 7.688993 -129.512945 -85.852974 39.315341 -123.796388 0.000000 0.000000 0.000000 0.000000 0.000000 0.000000 -22.256017 57.933796 -21.751903 31.845556 -76.667593 -17.418933 10.809276 25.586566 22.383612 0.000000 0.000000 0.000000 -5.818350 19.702383 -44.468709 28.159715 3.510966 -1.860949 -13.646296 -9.052793 -15.008303 0.000000 0.000000 0.000000
18.455584 79.189457 317.987811 5.532902 -1.098762 48.793994 -1.279657 0.443262 -48.585402 0.931632 -0.383981 0.223128 11.501237 -16.503671 -18.525359 0.000000 0.000000 0.000000 -71.683475 14.565846 90.287450 52.244466 24.669264 14.347238 59.384690 -23.526338 -138.173243 51.617918 -80.695109 117.336514 0.000000 0.000000 0.000000 0.000000 0.000000 0.000000 -37.448545 -10.338108 11.194952 -41.530779 15.905343 25.608160 -94.741932 12.632846 -145.199575 -83.715706 7.950445 -106.260251 0.000000 0.000000 0.000000 0.000000 0.000000 0.000000 -26.020162 51.671241 -26.743392 50.694558 -63.546759 -0.207359 9.524859 19.380500 26.285239 0.000000 0.000000 0.000000 -2.353527 15.649276 -45.991836 25.307220 5.474610 -1.613461 -14.839984 -10.544033 -15.909231 0.000000 0.000000 0.000000
17.274679 79.145730 320.938517 5.340957 -0.435862 49.334382 -1.017133 0.500597 -49.169167 0.741164 -0.051740 0.213744 14.385313 -17.824050 -20.016860 0.000000 0.000000 0.000000 -70.319408 17.788037 92.548698 53.768126 18.946746 13.410306 50.173875 -28.416002 -155.424608 92.995969 -81.166925 163.966465 0.000000 0.000000 0.000000 0.000000 0.000000 0.000000 -38.464298 -13.765148 10.233071 -41.760260 16.027441 27.300716 -104.858244 21.015295 -85.049497 -84.959813 60.534278 -94.076619 0.000000 0.000000 0.000000 0.000000 0.000000 0.000000 -29.955632 43.612275 -34.804914 51.920491 -39.411457 2.575006 9.645647 5.872712 29.173980 0.000000 0.000000 0.000000 -1.266459 15.116850 -46.781623 24.985001 6.552239 -1.505801 -15.474347 -12.067229 -17.341001 0.000000 0.000000 0.000000
